<?xml version="1.0" standalone="no"?>
<!DOCTYPE svg PUBLIC "-//W3C//DTD SVG 20010904//EN"
 "http://www.w3.org/TR/2001/REC-SVG-20010904/DTD/svg10.dtd">
<svg version="1.0" xmlns="http://www.w3.org/2000/svg"
 width="700.000000pt" height="700.000000pt" viewBox="0 0 700.000000 700.000000"
 preserveAspectRatio="xMidYMid meet">
<metadata>
Created by potrace 1.14, written by Peter Selinger 2001-2017
</metadata>
<g transform="translate(0.000000,700.000000) scale(0.100000,-0.100000)"
fill="#000000" stroke="none">
<path d="M0 3500 l0 -3500 3500 0 3500 0 0 3500 0 3500 -3500 0 -3500 0 0
-3500z m3975 2812 c427 -77 736 -226 963 -467 205 -216 318 -478 353 -815 25
-253 -46 -620 -168 -865 -141 -281 -315 -467 -725 -775 -48 -36 -87 -72 -88
-80 0 -8 151 -604 336 -1323 184 -720 334 -1310 332 -1312 -2 -1 -266 -4 -588
-6 l-585 -4 -336 1452 c-184 799 -338 1456 -342 1460 -4 3 -7 -1 -7 -9 0 -25
-438 -2879 -443 -2884 -2 -2 -259 -7 -570 -11 -554 -6 -567 -6 -567 13 -1 10
180 1285 402 2831 l403 2813 410 3 c787 6 1097 1 1220 -21z"/>
<path d="M3375 5408 c-2 -7 -52 -328 -110 -713 -58 -385 -108 -715 -111 -732
l-6 -33 65 0 c106 0 261 19 362 45 140 35 244 93 335 184 108 110 171 239 205
425 23 126 37 402 24 471 -28 152 -141 275 -312 340 -64 24 -78 25 -258 25
-143 0 -191 -3 -194 -12z"/>
</g>
</svg>
