<?xml version="1.0" standalone="no"?>
<!DOCTYPE svg PUBLIC "-//W3C//DTD SVG 20010904//EN"
 "http://www.w3.org/TR/2001/REC-SVG-20010904/DTD/svg10.dtd">
<svg version="1.0" xmlns="http://www.w3.org/2000/svg"
 width="260.000000pt" height="260.000000pt" viewBox="0 0 260.000000 260.000000"
 preserveAspectRatio="xMidYMid meet">
<metadata>
Created by potrace 1.14, written by Peter Selinger 2001-2017
</metadata>
<g transform="translate(0.000000,260.000000) scale(0.100000,-0.100000)"
fill="#000000" stroke="none">
<path d="M0 1300 l0 -1300 1300 0 1300 0 0 1300 0 1300 -1300 0 -1300 0 0
-1300z m1518 1034 c102 -20 227 -81 295 -144 110 -100 168 -269 147 -431 -11
-90 -41 -185 -78 -249 -41 -71 -160 -188 -280 -276 -3 -2 222 -892 244 -966 5
-17 -10 -18 -215 -18 l-219 0 -10 43 c-65 304 -238 1022 -243 1009 -3 -9 -41
-250 -85 -534 l-78 -518 -213 0 c-117 0 -213 1 -213 3 0 1 67 472 150 1045 83
574 150 1045 150 1048 0 2 128 4 285 4 220 0 304 -4 363 -16z"/>
<path d="M1216 1763 c-20 -137 -39 -261 -43 -277 l-5 -29 68 6 c198 16 284
109 300 324 8 111 -7 151 -75 194 -40 26 -54 29 -126 29 l-81 0 -38 -247z"/>
</g>
</svg>
